<svg width="250" height="47" viewBox="0 0 250 47" fill="none" xmlns="http://www.w3.org/2000/svg">
<path d="M4.44 7.78C3.4 7.78 2.52 7.42 1.8 6.7C1.08 5.98 0.72 5.1 0.72 4.06C0.72 3.02 1.08 2.14 1.8 1.42C2.52 0.699998 3.4 0.339998 4.44 0.339998C5.44 0.339998 6.28 0.699998 6.96 1.42C7.68 2.14 8.04 3.02 8.04 4.06C8.04 5.1 7.68 5.98 6.96 6.7C6.28 7.42 5.44 7.78 4.44 7.78ZM7.08 13.12V46H1.62V13.12H7.08ZM32.4056 12.52C36.4056 12.52 39.6456 13.74 42.1256 16.18C44.6056 18.58 45.8456 22.06 45.8456 26.62V46H40.4456V27.4C40.4456 24.12 39.6256 21.62 37.9856 19.9C36.3456 18.14 34.1056 17.26 31.2656 17.26C28.3856 17.26 26.0856 18.16 24.3656 19.96C22.6856 21.76 21.8456 24.38 21.8456 27.82V46H16.3856V13.12H21.8456V17.8C22.9256 16.12 24.3856 14.82 26.2256 13.9C28.1056 12.98 30.1656 12.52 32.4056 12.52ZM68.1445 17.62H61.2445V46H55.7845V17.62H51.5245V13.12H55.7845V10.78C55.7845 7.1 56.7245 4.42 58.6045 2.74C60.5245 1.02 63.5845 0.159997 67.7845 0.159997V4.72C65.3845 4.72 63.6845 5.2 62.6845 6.16C61.7245 7.08 61.2445 8.62 61.2445 10.78V13.12H68.1445V17.62ZM77.3306 7.78C76.2906 7.78 75.4106 7.42 74.6906 6.7C73.9706 5.98 73.6106 5.1 73.6106 4.06C73.6106 3.02 73.9706 2.14 74.6906 1.42C75.4106 0.699998 76.2906 0.339998 77.3306 0.339998C78.3306 0.339998 79.1706 0.699998 79.8506 1.42C80.5706 2.14 80.9306 3.02 80.9306 4.06C80.9306 5.1 80.5706 5.98 79.8506 6.7C79.1706 7.42 78.3306 7.78 77.3306 7.78ZM79.9706 13.12V46H74.5106V13.12H79.9706ZM87.2363 29.5C87.2363 26.1 87.9163 23.14 89.2763 20.62C90.6363 18.06 92.5163 16.08 94.9163 14.68C97.3563 13.28 100.136 12.58 103.256 12.58C107.296 12.58 110.616 13.56 113.216 15.52C115.856 17.48 117.596 20.2 118.436 23.68H112.556C111.996 21.68 110.896 20.1 109.256 18.94C107.656 17.78 105.656 17.2 103.256 17.2C100.136 17.2 97.6163 18.28 95.6963 20.44C93.7763 22.56 92.8163 25.58 92.8163 29.5C92.8163 33.46 93.7763 36.52 95.6963 38.68C97.6163 40.84 100.136 41.92 103.256 41.92C105.656 41.92 107.656 41.36 109.256 40.24C110.856 39.12 111.956 37.52 112.556 35.44H118.436C117.556 38.8 115.796 41.5 113.156 43.54C110.516 45.54 107.216 46.54 103.256 46.54C100.136 46.54 97.3563 45.84 94.9163 44.44C92.5163 43.04 90.6363 41.06 89.2763 38.5C87.9163 35.94 87.2363 32.94 87.2363 29.5ZM131.182 18.46C132.142 16.58 133.502 15.12 135.262 14.08C137.062 13.04 139.242 12.52 141.802 12.52V18.16H140.362C134.242 18.16 131.182 21.48 131.182 28.12V46H125.722V13.12H131.182V18.46ZM178.104 28.3C178.104 29.34 178.044 30.44 177.924 31.6H151.644C151.844 34.84 152.944 37.38 154.944 39.22C156.984 41.02 159.444 41.92 162.324 41.92C164.684 41.92 166.644 41.38 168.204 40.3C169.804 39.18 170.924 37.7 171.564 35.86H177.444C176.564 39.02 174.804 41.6 172.164 43.6C169.524 45.56 166.244 46.54 162.324 46.54C159.204 46.54 156.404 45.84 153.924 44.44C151.484 43.04 149.564 41.06 148.164 38.5C146.764 35.9 146.064 32.9 146.064 29.5C146.064 26.1 146.744 23.12 148.104 20.56C149.464 18 151.364 16.04 153.804 14.68C156.284 13.28 159.124 12.58 162.324 12.58C165.444 12.58 168.204 13.26 170.604 14.62C173.004 15.98 174.844 17.86 176.124 20.26C177.444 22.62 178.104 25.3 178.104 28.3ZM172.464 27.16C172.464 25.08 172.004 23.3 171.084 21.82C170.164 20.3 168.904 19.16 167.304 18.4C165.744 17.6 164.004 17.2 162.084 17.2C159.324 17.2 156.964 18.08 155.004 19.84C153.084 21.6 151.984 24.04 151.704 27.16H172.464ZM183.271 29.44C183.271 26.08 183.951 23.14 185.311 20.62C186.671 18.06 188.531 16.08 190.891 14.68C193.291 13.28 195.951 12.58 198.871 12.58C201.751 12.58 204.251 13.2 206.371 14.44C208.491 15.68 210.071 17.24 211.111 19.12V13.12H216.631V46H211.111V39.88C210.031 41.8 208.411 43.4 206.251 44.68C204.131 45.92 201.651 46.54 198.811 46.54C195.891 46.54 193.251 45.82 190.891 44.38C188.531 42.94 186.671 40.92 185.311 38.32C183.951 35.72 183.271 32.76 183.271 29.44ZM211.111 29.5C211.111 27.02 210.611 24.86 209.611 23.02C208.611 21.18 207.251 19.78 205.531 18.82C203.851 17.82 201.991 17.32 199.951 17.32C197.911 17.32 196.051 17.8 194.371 18.76C192.691 19.72 191.351 21.12 190.351 22.96C189.351 24.8 188.851 26.96 188.851 29.44C188.851 31.96 189.351 34.16 190.351 36.04C191.351 37.88 192.691 39.3 194.371 40.3C196.051 41.26 197.911 41.74 199.951 41.74C201.991 41.74 203.851 41.26 205.531 40.3C207.251 39.3 208.611 37.88 209.611 36.04C210.611 34.16 211.111 31.98 211.111 29.5ZM243.018 46L235.218 33.76L227.718 46H222.018L232.638 29.68L222.018 13.12H228.198L235.998 25.3L243.438 13.12H249.138L238.578 29.38L249.198 46H243.018Z" fill="white"/>
</svg>
